<svg width="40" height="15" viewBox="0 0 40 15" fill="none" xmlns="http://www.w3.org/2000/svg">
<mask id="path-1-inside-1_2008_411" fill="white">
<path d="M9 15L0 7.50437L9 0"/>
</mask>
<path d="M9 15L0 7.50437L9 0" fill="#39150A"/>
<path d="M0 7.50437L-0.639964 8.27277L-1.56205 7.50482L-0.640404 6.73633L0 7.50437ZM9 15L8.36004 15.7684L-0.639964 8.27277L0 7.50437L0.639964 6.73596L9.63996 14.2316L9 15ZM0 7.50437L-0.640404 6.73633L8.3596 -0.768038L9 0L9.6404 0.768038L0.640405 8.27241L0 7.50437Z" fill="#39150A" mask="url(#path-1-inside-1_2008_411)"/>
<line y1="-0.5" x2="31" y2="-0.5" transform="matrix(1 -8.74228e-08 -8.74228e-08 -1 9 7)" stroke="#39150A"/>
</svg>
